<svg width="237" height="49" viewBox="0 0 237 49" fill="none" xmlns="http://www.w3.org/2000/svg">
<path d="M34.1028 13.7007L23.0946 2.69245C22.9104 2.50823 22.6117 2.50823 22.4275 2.69245L11.773 13.3469C11.5888 13.5311 11.5888 13.8298 11.773 14.014L16.177 18.418C16.3612 18.6022 16.6599 18.6022 16.8441 18.418L22.7813 12.4809C22.9655 12.2966 23.2642 12.2966 23.4484 12.4809L29.3855 18.418C29.5697 18.6022 29.8684 18.6022 30.0526 18.418L34.1028 14.3678C34.287 14.1836 34.287 13.8849 34.1028 13.7007Z" fill="white"/>
<path d="M34.1028 13.7007L23.0946 2.69245C22.9104 2.50823 22.6117 2.50823 22.4275 2.69245L11.773 13.3469C11.5888 13.5311 11.5888 13.8298 11.773 14.014L16.177 18.418C16.3612 18.6022 16.6599 18.6022 16.8441 18.418L22.7813 12.4809C22.9655 12.2966 23.2642 12.2966 23.4484 12.4809L29.3855 18.418C29.5697 18.6022 29.8684 18.6022 30.0526 18.418L34.1028 14.3678C34.287 14.1836 34.287 13.8849 34.1028 13.7007Z" fill="url(#paint0_linear_19_2)"/>
<path d="M0.347527 36.8051L22.879 14.506C23.0095 14.3754 23.2209 14.3746 23.3525 14.5041L45.655 36.4617C45.8417 36.6455 45.8428 36.9462 45.6576 37.1314L36.6568 46.1322C36.4726 46.3164 36.1739 46.3164 35.9897 46.1322L23.4484 33.5908C23.2642 33.4066 22.9655 33.4066 22.7813 33.5908L10.2298 46.1422C10.0496 46.3225 9.75878 46.3269 9.5731 46.1523L0.356179 37.484C0.161566 37.301 0.157642 36.993 0.347527 36.8051Z" fill="white"/>
<path d="M0.347527 36.8051L22.879 14.506C23.0095 14.3754 23.2209 14.3746 23.3525 14.5041L45.655 36.4617C45.8417 36.6455 45.8428 36.9462 45.6576 37.1314L36.6568 46.1322C36.4726 46.3164 36.1739 46.3164 35.9897 46.1322L23.4484 33.5908C23.2642 33.4066 22.9655 33.4066 22.7813 33.5908L10.2298 46.1422C10.0496 46.3225 9.75878 46.3269 9.5731 46.1523L0.356179 37.484C0.161566 37.301 0.157642 36.993 0.347527 36.8051Z" fill="url(#paint1_linear_19_2)"/>
<path d="M17.946 46.6039L15.3135 43.9714C15.1283 43.7862 15.1294 43.4856 15.3159 43.3018L22.7763 35.9496C22.9628 35.7657 23.2635 35.7691 23.4459 35.957L30.5925 43.3202C30.7649 43.4978 30.7707 43.7784 30.6059 43.9629L28.2825 46.5651C28.102 46.7673 27.7887 46.7761 27.5971 46.5845L23.4484 42.4358C23.2642 42.2516 22.9655 42.2516 22.7813 42.4358L18.6131 46.6039C18.4289 46.7881 18.1302 46.7881 17.946 46.6039Z" fill="white"/>
<path d="M17.946 46.6039L15.3135 43.9714C15.1283 43.7862 15.1294 43.4856 15.3159 43.3018L22.7763 35.9496C22.9628 35.7657 23.2635 35.7691 23.4459 35.957L30.5925 43.3202C30.7649 43.4978 30.7707 43.7784 30.6059 43.9629L28.2825 46.5651C28.102 46.7673 27.7887 46.7761 27.5971 46.5845L23.4484 42.4358C23.2642 42.2516 22.9655 42.2516 22.7813 42.4358L18.6131 46.6039C18.4289 46.7881 18.1302 46.7881 17.946 46.6039Z" fill="url(#paint2_linear_19_2)"/>
<path d="M51.092 6.27497V17H48.9408V6.27497H51.092ZM55.3685 8.01126V10.7002H58.9793V12.4058H55.3685V15.2483H59.4403V17H53.2173V6.25961H59.4403V8.01126H55.3685ZM63.5463 8.01126V10.7002H67.1572V12.4058H63.5463V15.2483H67.6181V17H61.3952V6.25961H67.6181V8.01126H63.5463ZM71.7242 8.01126V10.7002H75.335V12.4058H71.7242V15.2483H75.796V17H69.573V6.25961H75.796V8.01126H71.7242Z" fill="white"/>
<path d="M59.2515 25.3561V38.0955H54.1558V25.3561H49.0601V20.2604H64.3473V25.3561H59.2515ZM71.4997 32.9997H81.6911V38.0955H66.4039V20.2604H81.6911V25.3561H71.4997V26.63H80.4172V31.7258H71.4997V32.9997ZM91.0092 20.2604H97.3789V25.3561H91.0092C89.9561 25.3561 89.0558 25.7298 88.3085 26.4772C87.5611 27.2245 87.1874 28.1248 87.1874 29.1779C87.1874 30.231 87.5611 31.1313 88.3085 31.8787C89.0558 32.626 89.9561 32.9997 91.0092 32.9997H97.3789V38.0955H91.0092C88.5463 38.0955 86.4443 37.2249 84.7032 35.4839C82.9622 33.7428 82.0917 31.6409 82.0917 29.1779C82.0917 26.715 82.9622 24.613 84.7032 22.8719C86.4443 21.1309 88.5463 20.2604 91.0092 20.2604ZM104.531 31.7258V38.0955H99.4355V20.2604H104.531V26.63H110.901V20.2604H115.997V38.0955H110.901V31.7258H104.531ZM123.786 31.7258C122.206 31.7258 120.856 31.1653 119.735 30.0442C118.614 28.9231 118.053 27.5728 118.053 25.9931C118.053 24.4134 118.614 23.063 119.735 21.942C120.856 20.8209 122.206 20.2604 123.786 20.2604H134.614V25.3561H123.786C123.608 25.3561 123.455 25.4198 123.327 25.5472C123.209 25.6661 123.149 25.8147 123.149 25.9931C123.149 26.1714 123.209 26.3243 123.327 26.4517C123.455 26.5706 123.608 26.63 123.786 26.63H128.882C130.461 26.63 131.812 27.1906 132.933 28.3116C134.054 29.4327 134.614 30.7831 134.614 32.3628C134.614 33.9424 134.054 35.2928 132.933 36.4139C131.812 37.5349 130.461 38.0955 128.882 38.0955H118.053V32.9997H128.882C129.06 32.9997 129.209 32.9403 129.328 32.8214C129.455 32.694 129.519 32.5411 129.519 32.3628C129.519 32.1844 129.455 32.0358 129.328 31.9169C129.209 31.7895 129.06 31.7258 128.882 31.7258H123.786ZM145.206 32.9997C146.26 32.9997 147.16 32.626 147.907 31.8787C148.655 31.1313 149.028 30.231 149.028 29.1779C149.028 28.1248 148.655 27.2245 147.907 26.4772C147.16 25.7298 146.26 25.3561 145.206 25.3561C144.153 25.3561 143.253 25.7298 142.506 26.4772C141.758 27.2245 141.385 28.1248 141.385 29.1779C141.385 30.231 141.758 31.1313 142.506 31.8787C143.253 32.626 144.153 32.9997 145.206 32.9997ZM145.206 38.0955C142.744 38.0955 140.642 37.2249 138.9 35.4839C137.159 33.7428 136.289 31.6409 136.289 29.1779C136.289 26.715 137.159 24.613 138.9 22.8719C140.642 21.1309 142.744 20.2604 145.206 20.2604C147.669 20.2604 149.771 21.1309 151.512 22.8719C153.253 24.613 154.124 26.715 154.124 29.1779C154.124 31.6409 153.253 33.7428 151.512 35.4839C149.771 37.2249 147.669 38.0955 145.206 38.0955ZM160.945 26.63H166.678C166.856 26.63 167.005 26.5706 167.124 26.4517C167.251 26.3243 167.315 26.1714 167.315 25.9931C167.315 25.8147 167.251 25.6661 167.124 25.5472C167.005 25.4198 166.856 25.3561 166.678 25.3561H160.945V26.63ZM160.945 31.7258V38.0955H155.849V20.2604H166.678C168.258 20.2604 169.608 20.8209 170.729 21.942C171.85 23.063 172.411 24.4134 172.411 25.9931C172.411 27.5728 171.85 28.9231 170.729 30.0442C169.982 30.7916 169.128 31.2884 168.168 31.5347L174.729 38.0955H167.544L161.174 31.7258H160.945ZM183.767 25.3561V38.0955H178.671V25.3561H173.575V20.2604H188.863V25.3561H183.767ZM196.015 38.0955H190.919V20.2604H196.015V38.0955ZM198.072 20.2604H203.167V29.8149C203.167 30.6981 203.477 31.4498 204.097 32.0697C204.717 32.6897 205.469 32.9997 206.352 32.9997C207.236 32.9997 207.987 32.6897 208.607 32.0697C209.227 31.4498 209.537 30.6981 209.537 29.8149V20.2604H214.633V29.8149C214.633 32.0995 213.822 34.0528 212.2 35.675C210.586 37.2886 208.637 38.0955 206.352 38.0955C204.068 38.0955 202.114 37.2886 200.492 35.675C198.879 34.0528 198.072 32.0995 198.072 29.8149V20.2604ZM225.607 33.4201L221.785 29.5983V38.0955H216.69V20.2604H219.658L225.607 26.2096L231.556 20.2604H234.525V38.0955H229.429V29.5983L225.607 33.4201Z" fill="white"/>
<path d="M50.1201 42.228V46.6257H49.5459V42.228H50.1201ZM51.8621 42.6949V44.165H53.4647V44.6382H51.8621V46.1525H53.654V46.6257H51.2879V42.2217H53.654V42.6949H51.8621ZM55.2862 42.6949V44.165H56.8889V44.6382H55.2862V46.1525H57.0782V46.6257H54.7121V42.2217H57.0782V42.6949H55.2862ZM58.7104 42.6949V44.165H60.313V44.6382H58.7104V46.1525H60.5023V46.6257H58.1362V42.2217H60.5023V42.6949H58.7104ZM65.8168 46.6257L64.006 44.6193V46.6257H63.4318V42.228H64.006V44.266L65.8231 42.228H66.5487L64.5549 44.43L66.5676 46.6257H65.8168ZM70.553 44.7644C70.553 44.8738 70.5466 44.9895 70.534 45.1114H67.7705C67.7915 45.4522 67.9072 45.7193 68.1175 45.9128C68.332 46.102 68.5907 46.1967 68.8936 46.1967C69.1417 46.1967 69.3478 46.1399 69.5119 46.0263C69.6801 45.9085 69.7979 45.7529 69.8652 45.5594H70.4836C70.391 45.8917 70.2059 46.163 69.9283 46.3734C69.6507 46.5795 69.3058 46.6825 68.8936 46.6825C68.5655 46.6825 68.271 46.6089 68.0102 46.4617C67.7536 46.3145 67.5517 46.1062 67.4045 45.837C67.2573 45.5636 67.1837 45.2481 67.1837 44.8906C67.1837 44.5331 67.2552 44.2197 67.3982 43.9505C67.5412 43.6813 67.741 43.4752 67.9976 43.3322C68.2584 43.1849 68.557 43.1113 68.8936 43.1113C69.2216 43.1113 69.5119 43.1828 69.7643 43.3258C70.0166 43.4689 70.2101 43.6666 70.3447 43.9189C70.4836 44.1671 70.553 44.4489 70.553 44.7644ZM69.9599 44.6445C69.9599 44.4258 69.9115 44.2386 69.8147 44.083C69.718 43.9231 69.5855 43.8033 69.4172 43.7233C69.2532 43.6392 69.0702 43.5972 68.8683 43.5972C68.5781 43.5972 68.3299 43.6897 68.1238 43.8748C67.9219 44.0599 67.8062 44.3164 67.7768 44.6445H69.9599ZM72.0743 43.7297C72.1752 43.532 72.3183 43.3784 72.5033 43.2691C72.6926 43.1597 72.9219 43.105 73.1911 43.105V43.6981H73.0397C72.3961 43.6981 72.0743 44.0472 72.0743 44.7455V46.6257H71.5001V43.1681H72.0743V43.7297ZM73.8286 44.8843C73.8286 44.531 73.9002 44.2218 74.0432 43.9568C74.1862 43.6876 74.3818 43.4794 74.63 43.3322C74.8823 43.1849 75.1621 43.1113 75.4691 43.1113C75.772 43.1113 76.0349 43.1765 76.2578 43.3069C76.4808 43.4373 76.6469 43.6014 76.7563 43.7991V43.1681H77.3367V46.6257H76.7563V45.9822C76.6427 46.1841 76.4723 46.3523 76.2452 46.4869C76.0223 46.6173 75.7615 46.6825 75.4628 46.6825C75.1558 46.6825 74.8781 46.6068 74.63 46.4554C74.3818 46.3039 74.1862 46.0915 74.0432 45.8181C73.9002 45.5447 73.8286 45.2334 73.8286 44.8843ZM76.7563 44.8906C76.7563 44.6298 76.7037 44.4027 76.5985 44.2092C76.4934 44.0157 76.3504 43.8685 76.1695 43.7675C75.9928 43.6624 75.7972 43.6098 75.5827 43.6098C75.3682 43.6098 75.1726 43.6602 74.9959 43.7612C74.8192 43.8622 74.6783 44.0094 74.5732 44.2029C74.468 44.3964 74.4154 44.6235 74.4154 44.8843C74.4154 45.1493 74.468 45.3807 74.5732 45.5783C74.6783 45.7718 74.8192 45.9212 74.9959 46.0263C75.1726 46.1273 75.3682 46.1778 75.5827 46.1778C75.7972 46.1778 75.9928 46.1273 76.1695 46.0263C76.3504 45.9212 76.4934 45.7718 76.5985 45.5783C76.7037 45.3807 76.7563 45.1514 76.7563 44.8906ZM79.0705 41.9567V46.6257H78.4963V41.9567H79.0705ZM80.0238 44.8843C80.0238 44.531 80.0953 44.2218 80.2383 43.9568C80.3814 43.6876 80.577 43.4794 80.8251 43.3322C81.0775 43.1849 81.3572 43.1113 81.6643 43.1113C81.9672 43.1113 82.2301 43.1765 82.453 43.3069C82.6759 43.4373 82.8421 43.6014 82.9514 43.7991V43.1681H83.5319V46.6257H82.9514V45.9822C82.8379 46.1841 82.6675 46.3523 82.4404 46.4869C82.2174 46.6173 81.9566 46.6825 81.658 46.6825C81.3509 46.6825 81.0733 46.6068 80.8251 46.4554C80.577 46.3039 80.3814 46.0915 80.2383 45.8181C80.0953 45.5447 80.0238 45.2334 80.0238 44.8843ZM82.9514 44.8906C82.9514 44.6298 82.8989 44.4027 82.7937 44.2092C82.6886 44.0157 82.5455 43.8685 82.3647 43.7675C82.188 43.6624 81.9924 43.6098 81.7779 43.6098C81.5633 43.6098 81.3678 43.6602 81.1911 43.7612C81.0144 43.8622 80.8735 44.0094 80.7683 44.2029C80.6632 44.3964 80.6106 44.6235 80.6106 44.8843C80.6106 45.1493 80.6632 45.3807 80.7683 45.5783C80.8735 45.7718 81.0144 45.9212 81.1911 46.0263C81.3678 46.1273 81.5633 46.1778 81.7779 46.1778C81.9924 46.1778 82.188 46.1273 82.3647 46.0263C82.5455 45.9212 82.6886 45.7718 82.7937 45.5783C82.8989 45.3807 82.9514 45.1514 82.9514 44.8906ZM87.9573 46.6699C87.6671 46.6699 87.4063 46.6194 87.1749 46.5185C86.9478 46.4133 86.769 46.2703 86.6386 46.0894C86.5082 45.9043 86.4409 45.6919 86.4367 45.4522H87.0488C87.0698 45.6583 87.1539 45.8328 87.3011 45.9758C87.4526 46.1147 87.6713 46.1841 87.9573 46.1841C88.2307 46.1841 88.4453 46.1168 88.6009 45.9822C88.7607 45.8433 88.8407 45.6667 88.8407 45.4522C88.8407 45.2839 88.7944 45.1472 88.7019 45.042C88.6093 44.9369 88.4936 44.857 88.3548 44.8023C88.216 44.7476 88.0288 44.6887 87.7933 44.6256C87.503 44.5499 87.2696 44.4742 87.0929 44.3985C86.9205 44.3228 86.7711 44.205 86.6449 44.0451C86.523 43.8811 86.462 43.6624 86.462 43.3889C86.462 43.1492 86.523 42.9368 86.6449 42.7517C86.7669 42.5666 86.9373 42.4236 87.156 42.3226C87.379 42.2217 87.6334 42.1712 87.9195 42.1712C88.3317 42.1712 88.6682 42.2743 88.929 42.4804C89.194 42.6865 89.3433 42.9599 89.377 43.3006H88.746C88.725 43.1324 88.6367 42.9851 88.481 42.8589C88.3254 42.7285 88.1193 42.6633 87.8627 42.6633C87.6229 42.6633 87.4273 42.7264 87.2759 42.8526C87.1245 42.9746 87.0488 43.1471 87.0488 43.37C87.0488 43.5299 87.0929 43.6602 87.1813 43.7612C87.2738 43.8622 87.3853 43.94 87.5157 43.9947C87.6503 44.0451 87.8374 44.104 88.0772 44.1713C88.3674 44.2512 88.6009 44.3312 88.7776 44.4111C88.9542 44.4868 89.1057 44.6067 89.2319 44.7707C89.358 44.9306 89.4211 45.1493 89.4211 45.4269C89.4211 45.6414 89.3644 45.8433 89.2508 46.0326C89.1372 46.2219 88.969 46.3755 88.746 46.4932C88.5231 46.611 88.2602 46.6699 87.9573 46.6699ZM93.6101 44.7644C93.6101 44.8738 93.6038 44.9895 93.5912 45.1114H90.8276C90.8487 45.4522 90.9643 45.7193 91.1747 45.9128C91.3892 46.102 91.6479 46.1967 91.9507 46.1967C92.1989 46.1967 92.405 46.1399 92.5691 46.0263C92.7373 45.9085 92.8551 45.7529 92.9224 45.5594H93.5407C93.4482 45.8917 93.2631 46.163 92.9855 46.3734C92.7079 46.5795 92.3629 46.6825 91.9507 46.6825C91.6226 46.6825 91.3282 46.6089 91.0674 46.4617C90.8108 46.3145 90.6089 46.1062 90.4617 45.837C90.3144 45.5636 90.2408 45.2481 90.2408 44.8906C90.2408 44.5331 90.3123 44.2197 90.4554 43.9505C90.5984 43.6813 90.7982 43.4752 91.0548 43.3322C91.3156 43.1849 91.6142 43.1113 91.9507 43.1113C92.2788 43.1113 92.5691 43.1828 92.8214 43.3258C93.0738 43.4689 93.2673 43.6666 93.4019 43.9189C93.5407 44.1671 93.6101 44.4489 93.6101 44.7644ZM93.017 44.6445C93.017 44.4258 92.9687 44.2386 92.8719 44.083C92.7752 43.9231 92.6427 43.8033 92.4744 43.7233C92.3104 43.6392 92.1274 43.5972 91.9255 43.5972C91.6352 43.5972 91.3871 43.6897 91.181 43.8748C90.9791 44.0599 90.8634 44.3164 90.8339 44.6445H93.017ZM94.3428 44.8906C94.3428 44.5331 94.4143 44.2218 94.5573 43.9568C94.7003 43.6876 94.898 43.4794 95.1504 43.3322C95.407 43.1849 95.6993 43.1113 96.0274 43.1113C96.4523 43.1113 96.8014 43.2144 97.0748 43.4205C97.3524 43.6266 97.5354 43.9126 97.6237 44.2786H97.0054C96.9465 44.0683 96.8308 43.9021 96.6584 43.7801C96.4901 43.6581 96.2798 43.5972 96.0274 43.5972C95.6993 43.5972 95.4343 43.7107 95.2324 43.9379C95.0305 44.1608 94.9296 44.4784 94.9296 44.8906C94.9296 45.307 95.0305 45.6288 95.2324 45.856C95.4343 46.0831 95.6993 46.1967 96.0274 46.1967C96.2798 46.1967 96.4901 46.1378 96.6584 46.02C96.8266 45.9022 96.9423 45.734 97.0054 45.5153H97.6237C97.5312 45.8686 97.3461 46.1525 97.0685 46.367C96.7909 46.5774 96.4439 46.6825 96.0274 46.6825C95.6993 46.6825 95.407 46.6089 95.1504 46.4617C94.898 46.3145 94.7003 46.1062 94.5573 45.837C94.4143 45.5678 94.3428 45.2524 94.3428 44.8906ZM99.2795 43.6413V45.6793C99.2795 45.8476 99.3153 45.9674 99.3868 46.0389C99.4583 46.1062 99.5824 46.1399 99.759 46.1399H100.182V46.6257H99.6644C99.3447 46.6257 99.1049 46.5521 98.9451 46.4049C98.7852 46.2577 98.7053 46.0158 98.7053 45.6793V43.6413H98.2574V43.1681H98.7053V42.2974H99.2795V43.1681H100.182V43.6413H99.2795ZM101.363 42.6066C101.254 42.6066 101.161 42.5687 101.086 42.493C101.01 42.4173 100.972 42.3247 100.972 42.2154C100.972 42.106 101.01 42.0135 101.086 41.9377C101.161 41.862 101.254 41.8242 101.363 41.8242C101.468 41.8242 101.557 41.862 101.628 41.9377C101.704 42.0135 101.742 42.106 101.742 42.2154C101.742 42.3247 101.704 42.4173 101.628 42.493C101.557 42.5687 101.468 42.6066 101.363 42.6066ZM101.641 43.1681V46.6257H101.067V43.1681H101.641ZM104.317 46.6825C103.993 46.6825 103.698 46.6089 103.433 46.4617C103.173 46.3145 102.966 46.1062 102.815 45.837C102.668 45.5636 102.594 45.2481 102.594 44.8906C102.594 44.5373 102.67 44.226 102.821 43.9568C102.977 43.6834 103.187 43.4752 103.452 43.3322C103.717 43.1849 104.014 43.1113 104.342 43.1113C104.67 43.1113 104.967 43.1849 105.232 43.3322C105.497 43.4752 105.705 43.6813 105.856 43.9505C106.012 44.2197 106.09 44.5331 106.09 44.8906C106.09 45.2481 106.01 45.5636 105.85 45.837C105.694 46.1062 105.482 46.3145 105.213 46.4617C104.943 46.6089 104.645 46.6825 104.317 46.6825ZM104.317 46.1778C104.523 46.1778 104.716 46.1294 104.897 46.0326C105.078 45.9359 105.223 45.7908 105.333 45.5973C105.446 45.4038 105.503 45.1682 105.503 44.8906C105.503 44.613 105.448 44.3774 105.339 44.1839C105.23 43.9904 105.086 43.8474 104.91 43.7549C104.733 43.6581 104.542 43.6098 104.336 43.6098C104.125 43.6098 103.932 43.6581 103.755 43.7549C103.583 43.8474 103.444 43.9904 103.339 44.1839C103.234 44.3774 103.181 44.613 103.181 44.8906C103.181 45.1724 103.231 45.4101 103.332 45.6036C103.438 45.7971 103.576 45.9422 103.749 46.0389C103.921 46.1315 104.111 46.1778 104.317 46.1778ZM108.719 43.105C109.139 43.105 109.48 43.2333 109.741 43.4899C110.002 43.7423 110.132 44.1082 110.132 44.5878V46.6257H109.564V44.6698C109.564 44.3249 109.478 44.062 109.305 43.8811C109.133 43.696 108.897 43.6035 108.599 43.6035C108.296 43.6035 108.054 43.6981 107.873 43.8874C107.696 44.0767 107.608 44.3522 107.608 44.7139V46.6257H107.034V43.1681H107.608V43.6602C107.722 43.4836 107.875 43.3469 108.069 43.2501C108.266 43.1534 108.483 43.105 108.719 43.105ZM114.525 46.6699C114.235 46.6699 113.974 46.6194 113.743 46.5185C113.515 46.4133 113.337 46.2703 113.206 46.0894C113.076 45.9043 113.009 45.6919 113.004 45.4522H113.616C113.637 45.6583 113.722 45.8328 113.869 45.9758C114.02 46.1147 114.239 46.1841 114.525 46.1841C114.798 46.1841 115.013 46.1168 115.168 45.9822C115.328 45.8433 115.408 45.6667 115.408 45.4522C115.408 45.2839 115.362 45.1472 115.269 45.042C115.177 44.9369 115.061 44.857 114.922 44.8023C114.784 44.7476 114.596 44.6887 114.361 44.6256C114.071 44.5499 113.837 44.4742 113.661 44.3985C113.488 44.3228 113.339 44.205 113.213 44.0451C113.091 43.8811 113.03 43.6624 113.03 43.3889C113.03 43.1492 113.091 42.9368 113.213 42.7517C113.335 42.5666 113.505 42.4236 113.724 42.3226C113.947 42.2217 114.201 42.1712 114.487 42.1712C114.899 42.1712 115.236 42.2743 115.497 42.4804C115.762 42.6865 115.911 42.9599 115.945 43.3006H115.314C115.293 43.1324 115.204 42.9851 115.049 42.8589C114.893 42.7285 114.687 42.6633 114.43 42.6633C114.191 42.6633 113.995 42.7264 113.843 42.8526C113.692 42.9746 113.616 43.1471 113.616 43.37C113.616 43.5299 113.661 43.6602 113.749 43.7612C113.841 43.8622 113.953 43.94 114.083 43.9947C114.218 44.0451 114.405 44.104 114.645 44.1713C114.935 44.2512 115.168 44.3312 115.345 44.4111C115.522 44.4868 115.673 44.6067 115.799 44.7707C115.926 44.9306 115.989 45.1493 115.989 45.4269C115.989 45.6414 115.932 45.8433 115.818 46.0326C115.705 46.2219 115.537 46.3755 115.314 46.4932C115.091 46.611 114.828 46.6699 114.525 46.6699ZM117.723 43.6413V45.6793C117.723 45.8476 117.759 45.9674 117.831 46.0389C117.902 46.1062 118.026 46.1399 118.203 46.1399H118.626V46.6257H118.108C117.789 46.6257 117.549 46.5521 117.389 46.4049C117.229 46.2577 117.149 46.0158 117.149 45.6793V43.6413H116.701V43.1681H117.149V42.2974H117.723V43.1681H118.626V43.6413H117.723ZM122.577 43.1681V46.6257H122.003V46.1147C121.893 46.2913 121.74 46.4301 121.542 46.5311C121.349 46.6278 121.134 46.6762 120.899 46.6762C120.629 46.6762 120.388 46.6215 120.173 46.5122C119.959 46.3986 119.788 46.2303 119.662 46.0074C119.54 45.7845 119.479 45.5132 119.479 45.1935V43.1681H120.047V45.1178C120.047 45.4585 120.133 45.7214 120.306 45.9064C120.478 46.0873 120.714 46.1778 121.012 46.1778C121.319 46.1778 121.561 46.0831 121.738 45.8938C121.914 45.7045 122.003 45.429 122.003 45.0673V43.1681H122.577ZM123.521 44.8843C123.521 44.531 123.593 44.2218 123.736 43.9568C123.879 43.6876 124.074 43.4794 124.322 43.3322C124.575 43.1849 124.857 43.1113 125.168 43.1113C125.437 43.1113 125.687 43.1744 125.919 43.3006C126.15 43.4226 126.327 43.5845 126.449 43.7864V41.9567H127.029V46.6257H126.449V45.9758C126.335 46.182 126.167 46.3523 125.944 46.4869C125.721 46.6173 125.46 46.6825 125.162 46.6825C124.855 46.6825 124.575 46.6068 124.322 46.4554C124.074 46.3039 123.879 46.0915 123.736 45.8181C123.593 45.5447 123.521 45.2334 123.521 44.8843ZM126.449 44.8906C126.449 44.6298 126.396 44.4027 126.291 44.2092C126.186 44.0157 126.043 43.8685 125.862 43.7675C125.685 43.6624 125.49 43.6098 125.275 43.6098C125.061 43.6098 124.865 43.6602 124.688 43.7612C124.512 43.8622 124.371 44.0094 124.266 44.2029C124.161 44.3964 124.108 44.6235 124.108 44.8843C124.108 45.1493 124.161 45.3807 124.266 45.5783C124.371 45.7718 124.512 45.9212 124.688 46.0263C124.865 46.1273 125.061 46.1778 125.275 46.1778C125.49 46.1778 125.685 46.1273 125.862 46.0263C126.043 45.9212 126.186 45.7718 126.291 45.5783C126.396 45.3807 126.449 45.1514 126.449 44.8906ZM131.344 44.7644C131.344 44.8738 131.337 44.9895 131.325 45.1114H128.561C128.582 45.4522 128.698 45.7193 128.908 45.9128C129.123 46.102 129.381 46.1967 129.684 46.1967C129.932 46.1967 130.139 46.1399 130.303 46.0263C130.471 45.9085 130.589 45.7529 130.656 45.5594H131.274C131.182 45.8917 130.997 46.163 130.719 46.3734C130.441 46.5795 130.096 46.6825 129.684 46.6825C129.356 46.6825 129.062 46.6089 128.801 46.4617C128.544 46.3145 128.342 46.1062 128.195 45.837C128.048 45.5636 127.974 45.2481 127.974 44.8906C127.974 44.5331 128.046 44.2197 128.189 43.9505C128.332 43.6813 128.532 43.4752 128.788 43.3322C129.049 43.1849 129.348 43.1113 129.684 43.1113C130.012 43.1113 130.303 43.1828 130.555 43.3258C130.807 43.4689 131.001 43.6666 131.135 43.9189C131.274 44.1671 131.344 44.4489 131.344 44.7644ZM130.751 44.6445C130.751 44.4258 130.702 44.2386 130.605 44.083C130.509 43.9231 130.376 43.8033 130.208 43.7233C130.044 43.6392 129.861 43.5972 129.659 43.5972C129.369 43.5972 129.121 43.6897 128.914 43.8748C128.713 44.0599 128.597 44.3164 128.567 44.6445H130.751ZM133.975 43.105C134.396 43.105 134.737 43.2333 134.998 43.4899C135.258 43.7423 135.389 44.1082 135.389 44.5878V46.6257H134.821V44.6698C134.821 44.3249 134.735 44.062 134.562 43.8811C134.39 43.696 134.154 43.6035 133.856 43.6035C133.553 43.6035 133.311 43.6981 133.13 43.8874C132.953 44.0767 132.865 44.3522 132.865 44.7139V46.6257H132.291V43.1681H132.865V43.6602C132.979 43.4836 133.132 43.3469 133.326 43.2501C133.523 43.1534 133.74 43.105 133.975 43.105ZM137.216 43.6413V45.6793C137.216 45.8476 137.252 45.9674 137.324 46.0389C137.395 46.1062 137.519 46.1399 137.696 46.1399H138.119V46.6257H137.601C137.282 46.6257 137.042 46.5521 136.882 46.4049C136.722 46.2577 136.642 46.0158 136.642 45.6793V43.6413H136.194V43.1681H136.642V42.2974H137.216V43.1681H138.119V43.6413H137.216ZM140.228 46.6825C139.963 46.6825 139.725 46.6384 139.515 46.55C139.304 46.4575 139.138 46.3313 139.016 46.1714C138.894 46.0074 138.827 45.8202 138.814 45.6099H139.407C139.424 45.7824 139.504 45.9233 139.647 46.0326C139.794 46.142 139.986 46.1967 140.221 46.1967C140.44 46.1967 140.612 46.1483 140.739 46.0516C140.865 45.9548 140.928 45.8328 140.928 45.6856C140.928 45.5342 140.861 45.4227 140.726 45.3512C140.591 45.2755 140.383 45.2019 140.101 45.1304C139.845 45.0631 139.635 44.9958 139.47 44.9285C139.311 44.857 139.172 44.7539 139.054 44.6193C138.94 44.4805 138.884 44.2996 138.884 44.0767C138.884 43.9 138.936 43.7381 139.041 43.5908C139.147 43.4436 139.296 43.3279 139.489 43.2438C139.683 43.1555 139.904 43.1113 140.152 43.1113C140.535 43.1113 140.844 43.2081 141.079 43.4016C141.315 43.5951 141.441 43.8601 141.458 44.1966H140.884C140.871 44.0157 140.798 43.8706 140.663 43.7612C140.533 43.6518 140.356 43.5972 140.133 43.5972C139.927 43.5972 139.763 43.6413 139.641 43.7297C139.519 43.818 139.458 43.9337 139.458 44.0767C139.458 44.1903 139.494 44.2849 139.565 44.3606C139.641 44.4321 139.733 44.491 139.843 44.5373C139.956 44.5793 140.112 44.6277 140.31 44.6824C140.558 44.7497 140.76 44.817 140.915 44.8843C141.071 44.9474 141.203 45.0441 141.313 45.1745C141.426 45.3049 141.485 45.4753 141.49 45.6856C141.49 45.8749 141.437 46.0453 141.332 46.1967C141.227 46.3481 141.077 46.468 140.884 46.5563C140.695 46.6405 140.476 46.6825 140.228 46.6825ZM147.068 42.228V42.6949H145.869V46.6257H145.295V42.6949H144.089V42.228H147.068ZM151.118 44.7644C151.118 44.8738 151.112 44.9895 151.099 45.1114H148.336C148.357 45.4522 148.473 45.7193 148.683 45.9128C148.897 46.102 149.156 46.1967 149.459 46.1967C149.707 46.1967 149.913 46.1399 150.077 46.0263C150.246 45.9085 150.363 45.7529 150.431 45.5594H151.049C150.956 45.8917 150.771 46.163 150.494 46.3734C150.216 46.5795 149.871 46.6825 149.459 46.6825C149.131 46.6825 148.836 46.6089 148.576 46.4617C148.319 46.3145 148.117 46.1062 147.97 45.837C147.823 45.5636 147.749 45.2481 147.749 44.8906C147.749 44.5331 147.821 44.2197 147.964 43.9505C148.107 43.6813 148.306 43.4752 148.563 43.3322C148.824 43.1849 149.122 43.1113 149.459 43.1113C149.787 43.1113 150.077 43.1828 150.33 43.3258C150.582 43.4689 150.776 43.6666 150.91 43.9189C151.049 44.1671 151.118 44.4489 151.118 44.7644ZM150.525 44.6445C150.525 44.4258 150.477 44.2386 150.38 44.083C150.283 43.9231 150.151 43.8033 149.983 43.7233C149.819 43.6392 149.636 43.5972 149.434 43.5972C149.143 43.5972 148.895 43.6897 148.689 43.8748C148.487 44.0599 148.372 44.3164 148.342 44.6445H150.525ZM151.851 44.8906C151.851 44.5331 151.923 44.2218 152.066 43.9568C152.209 43.6876 152.406 43.4794 152.659 43.3322C152.915 43.1849 153.208 43.1113 153.536 43.1113C153.961 43.1113 154.31 43.2144 154.583 43.4205C154.861 43.6266 155.044 43.9126 155.132 44.2786H154.514C154.455 44.0683 154.339 43.9021 154.167 43.7801C153.998 43.6581 153.788 43.5972 153.536 43.5972C153.208 43.5972 152.943 43.7107 152.741 43.9379C152.539 44.1608 152.438 44.4784 152.438 44.8906C152.438 45.307 152.539 45.6288 152.741 45.856C152.943 46.0831 153.208 46.1967 153.536 46.1967C153.788 46.1967 153.998 46.1378 154.167 46.02C154.335 45.9022 154.451 45.734 154.514 45.5153H155.132C155.039 45.8686 154.854 46.1525 154.577 46.367C154.299 46.5774 153.952 46.6825 153.536 46.6825C153.208 46.6825 152.915 46.6089 152.659 46.4617C152.406 46.3145 152.209 46.1062 152.066 45.837C151.923 45.5678 151.851 45.2524 151.851 44.8906ZM157.804 43.105C158.064 43.105 158.3 43.1618 158.51 43.2754C158.721 43.3847 158.885 43.5509 159.002 43.7738C159.124 43.9968 159.185 44.2681 159.185 44.5878V46.6257H158.618V44.6698C158.618 44.3249 158.531 44.062 158.359 43.8811C158.186 43.696 157.951 43.6035 157.652 43.6035C157.349 43.6035 157.107 43.6981 156.927 43.8874C156.75 44.0767 156.662 44.3522 156.662 44.7139V46.6257H156.087V41.9567H156.662V43.6602C156.775 43.4836 156.931 43.3469 157.128 43.2501C157.33 43.1534 157.555 43.105 157.804 43.105ZM161.997 43.105C162.418 43.105 162.759 43.2333 163.019 43.4899C163.28 43.7423 163.411 44.1082 163.411 44.5878V46.6257H162.843V44.6698C162.843 44.3249 162.756 44.062 162.584 43.8811C162.412 43.696 162.176 43.6035 161.877 43.6035C161.574 43.6035 161.333 43.6981 161.152 43.8874C160.975 44.0767 160.887 44.3522 160.887 44.7139V46.6257H160.313V43.1681H160.887V43.6602C161 43.4836 161.154 43.3469 161.347 43.2501C161.545 43.1534 161.762 43.105 161.997 43.105ZM164.834 42.6066C164.725 42.6066 164.632 42.5687 164.557 42.493C164.481 42.4173 164.443 42.3247 164.443 42.2154C164.443 42.106 164.481 42.0135 164.557 41.9377C164.632 41.862 164.725 41.8242 164.834 41.8242C164.939 41.8242 165.028 41.862 165.099 41.9377C165.175 42.0135 165.213 42.106 165.213 42.2154C165.213 42.3247 165.175 42.4173 165.099 42.493C165.028 42.5687 164.939 42.6066 164.834 42.6066ZM165.112 43.1681V46.6257H164.538V43.1681H165.112ZM166.065 44.8906C166.065 44.5331 166.137 44.2218 166.28 43.9568C166.423 43.6876 166.62 43.4794 166.873 43.3322C167.129 43.1849 167.422 43.1113 167.75 43.1113C168.175 43.1113 168.524 43.2144 168.797 43.4205C169.075 43.6266 169.258 43.9126 169.346 44.2786H168.728C168.669 44.0683 168.553 43.9021 168.381 43.7801C168.213 43.6581 168.002 43.5972 167.75 43.5972C167.422 43.5972 167.157 43.7107 166.955 43.9379C166.753 44.1608 166.652 44.4784 166.652 44.8906C166.652 45.307 166.753 45.6288 166.955 45.856C167.157 46.0831 167.422 46.1967 167.75 46.1967C168.002 46.1967 168.213 46.1378 168.381 46.02C168.549 45.9022 168.665 45.734 168.728 45.5153H169.346C169.254 45.8686 169.069 46.1525 168.791 46.367C168.513 46.5774 168.166 46.6825 167.75 46.6825C167.422 46.6825 167.129 46.6089 166.873 46.4617C166.62 46.3145 166.423 46.1062 166.28 45.837C166.137 45.5678 166.065 45.2524 166.065 44.8906ZM170.087 44.8843C170.087 44.531 170.159 44.2218 170.302 43.9568C170.445 43.6876 170.64 43.4794 170.888 43.3322C171.141 43.1849 171.42 43.1113 171.728 43.1113C172.03 43.1113 172.293 43.1765 172.516 43.3069C172.739 43.4373 172.905 43.6014 173.015 43.7991V43.1681H173.595V46.6257H173.015V45.9822C172.901 46.1841 172.731 46.3523 172.504 46.4869C172.281 46.6173 172.02 46.6825 171.721 46.6825C171.414 46.6825 171.137 46.6068 170.888 46.4554C170.64 46.3039 170.445 46.0915 170.302 45.8181C170.159 45.5447 170.087 45.2334 170.087 44.8843ZM173.015 44.8906C173.015 44.6298 172.962 44.4027 172.857 44.2092C172.752 44.0157 172.609 43.8685 172.428 43.7675C172.251 43.6624 172.056 43.6098 171.841 43.6098C171.627 43.6098 171.431 43.6602 171.254 43.7612C171.078 43.8622 170.937 44.0094 170.832 44.2029C170.726 44.3964 170.674 44.6235 170.674 44.8843C170.674 45.1493 170.726 45.3807 170.832 45.5783C170.937 45.7718 171.078 45.9212 171.254 46.0263C171.431 46.1273 171.627 46.1778 171.841 46.1778C172.056 46.1778 172.251 46.1273 172.428 46.0263C172.609 45.9212 172.752 45.7718 172.857 45.5783C172.962 45.3807 173.015 45.1514 173.015 44.8906ZM175.329 41.9567V46.6257H174.755V41.9567H175.329ZM178.154 44.4237C178.154 43.9947 178.25 43.6098 178.444 43.2691C178.637 42.9241 178.9 42.6549 179.233 42.4614C179.569 42.2679 179.941 42.1712 180.349 42.1712C180.829 42.1712 181.247 42.2869 181.605 42.5182C181.963 42.7496 182.223 43.0777 182.387 43.5025H181.7C181.578 43.2375 181.401 43.0335 181.17 42.8905C180.942 42.7475 180.669 42.676 180.349 42.676C180.042 42.676 179.767 42.7475 179.523 42.8905C179.279 43.0335 179.087 43.2375 178.949 43.5025C178.81 43.7633 178.74 44.0704 178.74 44.4237C178.74 44.7728 178.81 45.0799 178.949 45.3449C179.087 45.6057 179.279 45.8076 179.523 45.9506C179.767 46.0936 180.042 46.1651 180.349 46.1651C180.669 46.1651 180.942 46.0957 181.17 45.9569C181.401 45.8139 181.578 45.6099 181.7 45.3449H182.387C182.223 45.7655 181.963 46.0915 181.605 46.3229C181.247 46.55 180.829 46.6636 180.349 46.6636C179.941 46.6636 179.569 46.5689 179.233 46.3797C178.9 46.1862 178.637 45.9191 178.444 45.5783C178.25 45.2376 178.154 44.8528 178.154 44.4237ZM184.939 46.6825C184.615 46.6825 184.321 46.6089 184.056 46.4617C183.795 46.3145 183.589 46.1062 183.438 45.837C183.29 45.5636 183.217 45.2481 183.217 44.8906C183.217 44.5373 183.293 44.226 183.444 43.9568C183.6 43.6834 183.81 43.4752 184.075 43.3322C184.34 43.1849 184.636 43.1113 184.965 43.1113C185.293 43.1113 185.589 43.1849 185.854 43.3322C186.119 43.4752 186.327 43.6813 186.479 43.9505C186.634 44.2197 186.712 44.5331 186.712 44.8906C186.712 45.2481 186.632 45.5636 186.473 45.837C186.317 46.1062 186.104 46.3145 185.835 46.4617C185.566 46.6089 185.267 46.6825 184.939 46.6825ZM184.939 46.1778C185.145 46.1778 185.339 46.1294 185.52 46.0326C185.701 45.9359 185.846 45.7908 185.955 45.5973C186.069 45.4038 186.126 45.1682 186.126 44.8906C186.126 44.613 186.071 44.3774 185.961 44.1839C185.852 43.9904 185.709 43.8474 185.532 43.7549C185.356 43.6581 185.164 43.6098 184.958 43.6098C184.748 43.6098 184.554 43.6581 184.378 43.7549C184.205 43.8474 184.067 43.9904 183.961 44.1839C183.856 44.3774 183.804 44.613 183.804 44.8906C183.804 45.1724 183.854 45.4101 183.955 45.6036C184.06 45.7971 184.199 45.9422 184.371 46.0389C184.544 46.1315 184.733 46.1778 184.939 46.1778ZM189.341 43.105C189.762 43.105 190.103 43.2333 190.363 43.4899C190.624 43.7423 190.755 44.1082 190.755 44.5878V46.6257H190.187V44.6698C190.187 44.3249 190.1 44.062 189.928 43.8811C189.755 43.696 189.52 43.6035 189.221 43.6035C188.918 43.6035 188.677 43.6981 188.496 43.8874C188.319 44.0767 188.231 44.3522 188.231 44.7139V46.6257H187.657V43.1681H188.231V43.6602C188.344 43.4836 188.498 43.3469 188.691 43.2501C188.889 43.1534 189.106 43.105 189.341 43.105ZM193.106 46.6825C192.841 46.6825 192.603 46.6384 192.393 46.55C192.182 46.4575 192.016 46.3313 191.894 46.1714C191.772 46.0074 191.705 45.8202 191.692 45.6099H192.285C192.302 45.7824 192.382 45.9233 192.525 46.0326C192.672 46.142 192.864 46.1967 193.099 46.1967C193.318 46.1967 193.491 46.1483 193.617 46.0516C193.743 45.9548 193.806 45.8328 193.806 45.6856C193.806 45.5342 193.739 45.4227 193.604 45.3512C193.47 45.2755 193.261 45.2019 192.98 45.1304C192.723 45.0631 192.513 44.9958 192.349 44.9285C192.189 44.857 192.05 44.7539 191.932 44.6193C191.819 44.4805 191.762 44.2996 191.762 44.0767C191.762 43.9 191.814 43.7381 191.92 43.5908C192.025 43.4436 192.174 43.3279 192.368 43.2438C192.561 43.1555 192.782 43.1113 193.03 43.1113C193.413 43.1113 193.722 43.2081 193.958 43.4016C194.193 43.5951 194.319 43.8601 194.336 44.1966H193.762C193.749 44.0157 193.676 43.8706 193.541 43.7612C193.411 43.6518 193.234 43.5972 193.011 43.5972C192.805 43.5972 192.641 43.6413 192.519 43.7297C192.397 43.818 192.336 43.9337 192.336 44.0767C192.336 44.1903 192.372 44.2849 192.443 44.3606C192.519 44.4321 192.611 44.491 192.721 44.5373C192.834 44.5793 192.99 44.6277 193.188 44.6824C193.436 44.7497 193.638 44.817 193.793 44.8843C193.949 44.9474 194.082 45.0441 194.191 45.1745C194.305 45.3049 194.363 45.4753 194.368 45.6856C194.368 45.8749 194.315 46.0453 194.21 46.1967C194.105 46.3481 193.955 46.468 193.762 46.5563C193.573 46.6405 193.354 46.6825 193.106 46.6825ZM196.875 46.6825C196.552 46.6825 196.257 46.6089 195.992 46.4617C195.731 46.3145 195.525 46.1062 195.374 45.837C195.227 45.5636 195.153 45.2481 195.153 44.8906C195.153 44.5373 195.229 44.226 195.38 43.9568C195.536 43.6834 195.746 43.4752 196.011 43.3322C196.276 43.1849 196.573 43.1113 196.901 43.1113C197.229 43.1113 197.525 43.1849 197.79 43.3322C198.055 43.4752 198.264 43.6813 198.415 43.9505C198.571 44.2197 198.648 44.5331 198.648 44.8906C198.648 45.2481 198.568 45.5636 198.409 45.837C198.253 46.1062 198.041 46.3145 197.771 46.4617C197.502 46.6089 197.204 46.6825 196.875 46.6825ZM196.875 46.1778C197.082 46.1778 197.275 46.1294 197.456 46.0326C197.637 45.9359 197.782 45.7908 197.891 45.5973C198.005 45.4038 198.062 45.1682 198.062 44.8906C198.062 44.613 198.007 44.3774 197.898 44.1839C197.788 43.9904 197.645 43.8474 197.469 43.7549C197.292 43.6581 197.1 43.6098 196.894 43.6098C196.684 43.6098 196.491 43.6581 196.314 43.7549C196.141 43.8474 196.003 43.9904 195.897 44.1839C195.792 44.3774 195.74 44.613 195.74 44.8906C195.74 45.1724 195.79 45.4101 195.891 45.6036C195.996 45.7971 196.135 45.9422 196.308 46.0389C196.48 46.1315 196.669 46.1778 196.875 46.1778ZM200.167 43.7297C200.268 43.532 200.411 43.3784 200.596 43.2691C200.785 43.1597 201.014 43.105 201.284 43.105V43.6981H201.132C200.489 43.6981 200.167 44.0472 200.167 44.7455V46.6257H199.593V43.1681H200.167V43.7297ZM202.836 43.6413V45.6793C202.836 45.8476 202.872 45.9674 202.943 46.0389C203.015 46.1062 203.139 46.1399 203.316 46.1399H203.738V46.6257H203.221C202.901 46.6257 202.661 46.5521 202.502 46.4049C202.342 46.2577 202.262 46.0158 202.262 45.6793V43.6413H201.814V43.1681H202.262V42.2974H202.836V43.1681H203.738V43.6413H202.836ZM204.92 42.6066C204.81 42.6066 204.718 42.5687 204.642 42.493C204.566 42.4173 204.529 42.3247 204.529 42.2154C204.529 42.106 204.566 42.0135 204.642 41.9377C204.718 41.862 204.81 41.8242 204.92 41.8242C205.025 41.8242 205.113 41.862 205.185 41.9377C205.261 42.0135 205.298 42.106 205.298 42.2154C205.298 42.3247 205.261 42.4173 205.185 42.493C205.113 42.5687 205.025 42.6066 204.92 42.6066ZM205.197 43.1681V46.6257H204.623V43.1681H205.197ZM209.432 43.1681V46.6257H208.858V46.1147C208.748 46.2913 208.595 46.4301 208.397 46.5311C208.203 46.6278 207.989 46.6762 207.753 46.6762C207.484 46.6762 207.242 46.6215 207.028 46.5122C206.813 46.3986 206.643 46.2303 206.517 46.0074C206.395 45.7845 206.334 45.5132 206.334 45.1935V43.1681H206.902V45.1178C206.902 45.4585 206.988 45.7214 207.16 45.9064C207.333 46.0873 207.568 46.1778 207.867 46.1778C208.174 46.1778 208.416 46.0831 208.593 45.8938C208.769 45.7045 208.858 45.429 208.858 45.0673V43.1681H209.432ZM214.748 43.105C215.018 43.105 215.257 43.1618 215.468 43.2754C215.678 43.3847 215.844 43.5509 215.966 43.7738C216.088 43.9968 216.149 44.2681 216.149 44.5878V46.6257H215.581V44.6698C215.581 44.3249 215.495 44.062 215.323 43.8811C215.154 43.696 214.925 43.6035 214.635 43.6035C214.336 43.6035 214.099 43.7002 213.922 43.8937C213.745 44.083 213.657 44.3585 213.657 44.7203V46.6257H213.089V44.6698C213.089 44.3249 213.003 44.062 212.83 43.8811C212.662 43.696 212.433 43.6035 212.143 43.6035C211.844 43.6035 211.606 43.7002 211.43 43.8937C211.253 44.083 211.165 44.3585 211.165 44.7203V46.6257H210.59V43.1681H211.165V43.6666C211.278 43.4857 211.43 43.3469 211.619 43.2501C211.812 43.1534 212.025 43.105 212.256 43.105C212.546 43.105 212.803 43.1702 213.026 43.3006C213.249 43.431 213.415 43.6224 213.524 43.8748C213.621 43.6308 213.781 43.4415 214.004 43.3069C214.227 43.1723 214.475 43.105 214.748 43.105ZM218.988 46.1651C219.522 45.7361 219.94 45.3849 220.243 45.1114C220.546 44.8338 220.801 44.5457 221.007 44.247C221.217 43.9442 221.322 43.6476 221.322 43.3574C221.322 43.084 221.255 42.8695 221.12 42.7138C220.99 42.554 220.777 42.4741 220.483 42.4741C220.197 42.4741 219.974 42.5645 219.814 42.7454C219.659 42.922 219.574 43.1597 219.562 43.4583H219.007C219.023 42.9872 219.166 42.6234 219.436 42.3668C219.705 42.1102 220.052 41.9819 220.477 41.9819C220.91 41.9819 221.253 42.1018 221.505 42.3416C221.762 42.5813 221.89 42.9115 221.89 43.3322C221.89 43.6813 221.785 44.022 221.575 44.3543C221.368 44.6824 221.133 44.9726 220.868 45.225C220.603 45.4732 220.264 45.7634 219.852 46.0957H222.023V46.5753H218.988V46.1651ZM222.876 44.2975C222.876 43.574 222.993 43.0104 223.229 42.6066C223.464 42.1985 223.877 41.9945 224.466 41.9945C225.05 41.9945 225.46 42.1985 225.696 42.6066C225.931 43.0104 226.049 43.574 226.049 44.2975C226.049 45.0336 225.931 45.6057 225.696 46.0137C225.46 46.4217 225.05 46.6257 224.466 46.6257C223.877 46.6257 223.464 46.4217 223.229 46.0137C222.993 45.6057 222.876 45.0336 222.876 44.2975ZM225.481 44.2975C225.481 43.9316 225.456 43.6224 225.406 43.37C225.359 43.1134 225.261 42.9073 225.109 42.7517C224.962 42.596 224.747 42.5182 224.466 42.5182C224.18 42.5182 223.961 42.596 223.809 42.7517C223.662 42.9073 223.563 43.1134 223.513 43.37C223.467 43.6224 223.443 43.9316 223.443 44.2975C223.443 44.6761 223.467 44.9937 223.513 45.2503C223.563 45.5068 223.662 45.713 223.809 45.8686C223.961 46.0242 224.18 46.102 224.466 46.102C224.747 46.102 224.962 46.0242 225.109 45.8686C225.261 45.713 225.359 45.5068 225.406 45.2503C225.456 44.9937 225.481 44.6761 225.481 44.2975ZM226.957 46.1651C227.492 45.7361 227.91 45.3849 228.213 45.1114C228.516 44.8338 228.77 44.5457 228.976 44.247C229.187 43.9442 229.292 43.6476 229.292 43.3574C229.292 43.084 229.225 42.8695 229.09 42.7138C228.96 42.554 228.747 42.4741 228.453 42.4741C228.167 42.4741 227.944 42.5645 227.784 42.7454C227.628 42.922 227.544 43.1597 227.532 43.4583H226.976C226.993 42.9872 227.136 42.6234 227.405 42.3668C227.675 42.1102 228.022 41.9819 228.446 41.9819C228.88 41.9819 229.223 42.1018 229.475 42.3416C229.731 42.5813 229.86 42.9115 229.86 43.3322C229.86 43.6813 229.755 44.022 229.544 44.3543C229.338 44.6824 229.103 44.9726 228.838 45.225C228.573 45.4732 228.234 45.7634 227.822 46.0957H229.992V46.5753H226.957V46.1651ZM230.706 45.6099V45.1745L232.921 42.1081H233.609V45.1114H234.24V45.6099H233.609V46.6257H233.041V45.6099H230.706ZM233.066 42.7075L231.369 45.1114H233.066V42.7075Z" fill="white"/>
<defs>
<linearGradient id="paint0_linear_19_2" x1="22.9969" y1="-16.5132" x2="22.9969" y2="57.4711" gradientUnits="userSpaceOnUse">
<stop stop-color="white"/>
<stop offset="0.767252" stop-color="#5770F3"/>
<stop offset="0.93385" stop-color="#0E0940"/>
</linearGradient>
<linearGradient id="paint1_linear_19_2" x1="22.9969" y1="-16.5132" x2="22.9969" y2="57.4711" gradientUnits="userSpaceOnUse">
<stop stop-color="white"/>
<stop offset="0.767252" stop-color="#5770F3"/>
<stop offset="0.93385" stop-color="#0E0940"/>
</linearGradient>
<linearGradient id="paint2_linear_19_2" x1="22.9969" y1="-16.5132" x2="22.9969" y2="57.4711" gradientUnits="userSpaceOnUse">
<stop stop-color="white"/>
<stop offset="0.767252" stop-color="#5770F3"/>
<stop offset="0.93385" stop-color="#0E0940"/>
</linearGradient>
</defs>
</svg>
